<svg xmlns="http://www.w3.org/2000/svg" viewBox="0 0 37 37" shape-rendering="crispEdges"><path fill="#fff" d="M0 0h37v37H0z"/><path stroke="#000" d="M4 4.5h7m2 0h1m1 0h1m4 0h5m1 0h7m-29 1h1m5 0h1m2 0h1m3 0h1m1 0h3m4 0h1m5 0h1m-29 1h1m1 0h3m1 0h1m1 0h5m1 0h3m3 0h1m1 0h1m1 0h3m1 0h1m-29 1h1m1 0h3m1 0h1m1 0h1m1 0h5m2 0h1m1 0h1m2 0h1m1 0h3m1 0h1m-29 1h1m1 0h3m1 0h1m1 0h2m2 0h2m4 0h3m1 0h1m1 0h3m1 0h1m-29 1h1m5 0h1m1 0h2m1 0h1m1 0h3m2 0h1m3 0h1m5 0h1m-29 1h7m1 0h1m1 0h1m1 0h1m1 0h1m1 0h1m1 0h1m1 0h1m1 0h7m-21 1h5m2 0h1m3 0h2m-21 1h1m1 0h5m2 0h2m1 0h1m4 0h1m1 0h1m2 0h5m-27 1h2m1 0h2m4 0h3m1 0h1m2 0h1m1 0h7m3 0h1m-29 1h2m3 0h2m3 0h6m4 0h1m1 0h3m-24 1h2m1 0h1m2 0h3m1 0h3m4 0h8m1 0h1m-28 1h2m1 0h2m1 0h1m1 0h2m4 0h1m1 0h3m1 0h2m3 0h2m-25 1h1m2 0h1m1 0h6m3 0h2m1 0h6m3 0h1m-28 1h2m3 0h1m2 0h2m4 0h3m2 0h1m1 0h2m1 0h2m-27 1h1m7 0h3m1 0h1m1 0h3m2 0h4m4 0h1m-27 1h1m1 0h4m1 0h1m1 0h3m3 0h2m1 0h1m5 0h2m-27 1h1m1 0h1m4 0h1m1 0h1m3 0h2m2 0h8m1 0h1m1 0h1m-29 1h1m5 0h1m2 0h1m1 0h6m4 0h3m2 0h1m-27 1h1m1 0h1m4 0h1m1 0h1m1 0h1m1 0h1m1 0h2m1 0h1m1 0h1m2 0h1m3 0h1m-28 1h1m2 0h2m1 0h2m3 0h2m1 0h2m1 0h1m2 0h5m1 0h3m-21 1h1m1 0h2m4 0h3m1 0h1m3 0h5m-29 1h7m2 0h4m2 0h1m1 0h1m1 0h2m1 0h1m1 0h3m-27 1h1m5 0h1m1 0h1m5 0h3m2 0h2m3 0h1m2 0h2m-29 1h1m1 0h3m1 0h1m1 0h1m2 0h1m5 0h1m2 0h5m1 0h1m-27 1h1m1 0h3m1 0h1m1 0h1m2 0h2m1 0h1m1 0h1m1 0h3m4 0h4m-29 1h1m1 0h3m1 0h1m1 0h1m2 0h1m3 0h13m-28 1h1m5 0h1m2 0h3m1 0h3m4 0h1m1 0h1m1 0h2m1 0h1m-28 1h7m1 0h4m3 0h1m1 0h1m5 0h4"/></svg>